<svg xmlns="http://www.w3.org/2000/svg" width="339.375" height="216.023" viewBox="0 0 339.375 216.023">
  <g id="Image" transform="translate(-18.026 -264.244)">
    <g id="Background" transform="translate(18.026 264.244)">
      <path id="Background_base" data-name="Background base" d="M239.168,60.9c-55.388,42.834,55.388,40.972,55.388,52.239,0,28.366-76.817,28.366-76.817,28.366S20,136.483,53.33,77.753-16.472,64.253,2.3,19,294.556,18.071,239.168,60.9Z" transform="translate(322.029 141.509) rotate(180)" fill="#ffe4e5"/>
      <path id="Background_base-2" data-name="Background base" d="M339.323-136.626c1.371-2.576-24.443-4.539-24.443-5.9,0-6.18,13.847-5.459,13.847-11.468S246.911-160,246.911-160H54.945C14.1-160,.351-159.649,0-156.844s68.483,6.833,68.483,12.318S50.715-146,50.715-131.241,325.321-110.314,339.323-136.626Z" transform="translate(0 334.554)" fill="#e3edfa"/>
      <path id="Background_base-3" data-name="Background base" d="M-217.6,27.918c-17.893,0-32.4,2.055-32.4-8.609S-235.5,0-217.6,0s32.4,8.645,32.4,19.309S-199.71,27.918-217.6,27.918Z" transform="translate(522.915 57.924)" fill="#ffe4e5"/>
      <path id="Background_base-4" data-name="Background base" d="M-259.064,6.125c0-10.664,31.058-6.351,56.259,4.854s.358,25.177-11.6,27.1S-259.064,16.789-259.064,6.125Z" transform="translate(275.331 38.379)" fill="#ffe4e5"/>
      <path id="Leaves" d="M-241.3,26.469h-84.42s8.537-5.525,8.537-9.306,9.161-2.1,12.148-2.636.578-6.226,6.225-6.826,5.99,2.722,9.2,2.2S-290.658,0-279.4,0s4.333,6.112,9.361,6.207,3.084-2.9,8.748-1.928,1.17,12.885,6.988,10.815S-241.3,26.469-241.3,26.469Z" transform="translate(553.799 148.636)" fill="#c9daf2"/>
    </g>
    <g id="Leaves-2" data-name="Leaves" transform="translate(85.878 388.502) rotate(3)">
      <path id="Leaves_base" data-name="Leaves base" d="M40.176,31.843a.259.259,0,0,1-.386.346Q28.735,19.861,19.75,17.664C9.935,15.259.624,7.457,0,.282A.259.259,0,1,1,.517.237c.6,6.913,9.734,14.566,19.356,16.924Q29.032,19.405,40.176,31.843Z" transform="translate(6.275 8.361)" fill="#ff8d88"/>
      <path id="Leaves_base-2" data-name="Leaves base" d="M.68,7.711a.259.259,0,1,1-.515.057C-.231,4.2.085,1.655,1.137.113a.259.259,0,1,1,.428.292C.6,1.822.3,4.259.68,7.711Z" transform="translate(11.091 9.873)" fill="#ff8d88"/>
      <path id="Leaves_base-3" data-name="Leaves base" d="M.669,8.208h0L.55,7.716A16.254,16.254,0,0,1,0,3.564,4.342,4.342,0,0,1,.755.979,2.783,2.783,0,0,1,3.075,0,1.892,1.892,0,0,1,4.683.591a1.75,1.75,0,0,1,.1,1.593C4.392,3.463,3.153,5.308,1,7.823L.67,8.208ZM3.075.518a2.306,2.306,0,0,0-1.905.8A3.688,3.688,0,0,0,.517,3.492a14.476,14.476,0,0,0,.421,3.6A17.687,17.687,0,0,0,4.29,2.032,1.273,1.273,0,0,0,4.264.9C4.076.642,3.687.518,3.075.518Z" transform="translate(10.671 7.161)" fill="#ff8d88"/>
      <path id="Leaves_base-4" data-name="Leaves base" d="M4.074,8.378h0L3.7,8.05A16.57,16.57,0,0,1,.845,4.932,4.094,4.094,0,0,1,.009,2.418,2.616,2.616,0,0,1,1.415.428,2.466,2.466,0,0,1,2.67,0a1.224,1.224,0,0,1,.852.33,2.246,2.246,0,0,1,.573.984c.4,1.249.415,3.4.037,6.573l-.058.491ZM2.657.515h0a1.948,1.948,0,0,0-.971.354A2.138,2.138,0,0,0,.543,2.478,3.455,3.455,0,0,0,1.233,4.6,14.831,14.831,0,0,0,3.675,7.327,16.174,16.174,0,0,0,3.6,1.473C3.391.819,3.091.515,2.657.515Z" transform="translate(3.737 4.956)" fill="#ff8d88"/>
      <path id="Leaves_base-5" data-name="Leaves base" d="M7.04,3.43a.259.259,0,1,1-.271.442A29.421,29.421,0,0,0,.2.511.259.259,0,0,1,.32.007C1.582.31,3.813,1.449,7.04,3.43Z" transform="translate(5.053 14.431)" fill="#ff8d88"/>
      <path id="Leaves_base-6" data-name="Leaves base" d="M4.021,5.776A4.73,4.73,0,0,1,.854,4.452,2.571,2.571,0,0,1,0,2.61,2.665,2.665,0,0,1,.941.734,2.436,2.436,0,0,1,2.636,0,4.172,4.172,0,0,1,5.227,1.213a18.541,18.541,0,0,1,3.026,3.6l.262.386-.466.018a24.014,24.014,0,0,0-3.419.5A3.109,3.109,0,0,1,4.021,5.776ZM2.644.536A1.929,1.929,0,0,0,1.3,1.111,2.138,2.138,0,0,0,.519,2.617a2.043,2.043,0,0,0,.7,1.467,4.246,4.246,0,0,0,2.8,1.174,2.6,2.6,0,0,0,.508-.048,29.2,29.2,0,0,1,3.038-.48A16.881,16.881,0,0,0,4.86,1.575,3.619,3.619,0,0,0,2.644.536Z" transform="translate(0 10.842)" fill="#ff8d88"/>
      <path id="Leaves_base-7" data-name="Leaves base" d="M5.132.363a.259.259,0,1,1-.1.509C2.679.406,1.122.406.392.84A.259.259,0,0,1,.127.394C1-.126,2.661-.126,5.132.363Z" transform="translate(8.814 19.283)" fill="#ff8d88"/>
      <path id="Leaves_base-8" data-name="Leaves base" d="M2.052,4.481h0A1.7,1.7,0,0,1,.93,4.021,2.8,2.8,0,0,1,.161,2.829,2.214,2.214,0,0,1,.264.934,1.885,1.885,0,0,1,1.673.087,8.737,8.737,0,0,1,2.906,0,9.837,9.837,0,0,1,5.3.306a13.131,13.131,0,0,1,2.487.917l.472.228-.467.237c-2.037,1.033-3.72,1.908-5,2.6A1.528,1.528,0,0,1,2.052,4.481ZM2.905.518h0A8.217,8.217,0,0,0,1.747.6,1.39,1.39,0,0,0,.7,1.212,1.7,1.7,0,0,0,.651,2.66a1.7,1.7,0,0,0,1.41,1.3.993.993,0,0,0,.476-.123C3.722,3.193,5.249,2.4,7.075,1.469A10.43,10.43,0,0,0,2.906.518Z" transform="translate(4.856 18.404)" fill="#ff8d88"/>
      <path id="Leaves_base-9" data-name="Leaves base" d="M5.837.09a.259.259,0,1,1-.052.516C3.062.329,1.291.712.459,1.713a.259.259,0,0,1-.4-.331C1.03.215,2.96-.2,5.837.09Z" transform="translate(12.533 22.425)" fill="#ff8d88"/>
      <path id="Leaves_base-10" data-name="Leaves base" d="M3.805,4.68a6.031,6.031,0,0,1-2.027-.4A3.625,3.625,0,0,1,.239,3.314.932.932,0,0,1,.007,2.6a1.033,1.033,0,0,1,.474-.676A8.762,8.762,0,0,1,3.456.8,38.74,38.74,0,0,1,8.594.07L9.415,0,8.782.528A16.833,16.833,0,0,0,5.31,4.081a1.116,1.116,0,0,1-.583.454A2.6,2.6,0,0,1,3.805,4.68ZM7.823.662C4.241,1.015,1.871,1.583.779,2.35a.524.524,0,0,0-.258.322.424.424,0,0,0,.123.319,3.184,3.184,0,0,0,1.315.8,5.614,5.614,0,0,0,1.863.369c.539,0,.91-.122,1.043-.345A15.078,15.078,0,0,1,7.823.662Z" transform="translate(7.918 22.349)" fill="#ff8d88"/>
      <path id="Leaves_base-11" data-name="Leaves base" d="M3.251,5.671a.259.259,0,1,1-.409.318C.632,3.148-.3,1.241.084.172A.259.259,0,0,1,.572.347C.276,1.173,1.157,2.98,3.251,5.671Z" transform="translate(17.346 17.688)" fill="#ff8d88"/>
      <path id="Leaves_base-12" data-name="Leaves base" d="M2.981,6.557h0L2.7,6.348A7.824,7.824,0,0,1,.273,3.367,2.77,2.77,0,0,1,0,2.064,2.265,2.265,0,0,1,.348.952,2.064,2.064,0,0,1,2.128,0a2.739,2.739,0,0,1,.808.128A1.456,1.456,0,0,1,3.848.9a3.637,3.637,0,0,1,.165,2.068A16.467,16.467,0,0,1,3.1,6.231l-.121.325ZM2.136.52a1.567,1.567,0,0,0-1.354.715A1.969,1.969,0,0,0,.744,3.149,7.258,7.258,0,0,0,2.739,5.716c.81-2.264,1.025-3.805.638-4.579A.966.966,0,0,0,2.783.623,2.193,2.193,0,0,0,2.136.52Z" transform="translate(15.735 14.601)" fill="#ff8d88"/>
      <path id="Leaves_base-13" data-name="Leaves base" d="M19.873,17.161a.259.259,0,1,1-.123.5C9.935,15.259.624,7.457,0,.282A.259.259,0,1,1,.517.237C1.118,7.15,10.251,14.8,19.873,17.161Z" transform="translate(31.658 4.239) rotate(40)" fill="#ff8d88"/>
      <path id="Leaves_base-14" data-name="Leaves base" d="M.68,7.711a.259.259,0,1,1-.515.057C-.231,4.2.085,1.655,1.137.113a.259.259,0,1,1,.428.292C.6,1.822.3,4.259.68,7.711Z" transform="translate(34.376 8.494) rotate(40)" fill="#ff8d88"/>
      <path id="Leaves_base-15" data-name="Leaves base" d="M.669,8.208h0L.55,7.716A16.254,16.254,0,0,1,0,3.564,4.342,4.342,0,0,1,.755.979,2.783,2.783,0,0,1,3.075,0,1.892,1.892,0,0,1,4.683.591a1.75,1.75,0,0,1,.1,1.593C4.392,3.463,3.153,5.308,1,7.823L.67,8.208ZM3.075.518a2.306,2.306,0,0,0-1.905.8A3.688,3.688,0,0,0,.517,3.492a14.476,14.476,0,0,0,.421,3.6A17.687,17.687,0,0,0,4.29,2.032,1.273,1.273,0,0,0,4.264.9C4.076.642,3.687.518,3.075.518Z" transform="translate(35.797 6.146) rotate(40)" fill="#ff8d88"/>
      <path id="Leaves_base-16" data-name="Leaves base" d="M4.074,8.378h0L3.7,8.05A16.57,16.57,0,0,1,.845,4.932,4.094,4.094,0,0,1,.009,2.418,2.616,2.616,0,0,1,1.415.428,2.466,2.466,0,0,1,2.67,0a1.224,1.224,0,0,1,.852.33,2.246,2.246,0,0,1,.573.984c.4,1.249.415,3.4.037,6.573l-.058.491ZM2.657.515h0a1.948,1.948,0,0,0-.971.354A2.138,2.138,0,0,0,.543,2.478,3.455,3.455,0,0,0,1.233,4.6,14.831,14.831,0,0,0,3.675,7.327,16.174,16.174,0,0,0,3.6,1.473C3.391.819,3.091.515,2.657.515Z" transform="translate(31.902 0) rotate(40)" fill="#ff8d88"/>
      <path id="Leaves_base-17" data-name="Leaves base" d="M7.04,3.43a.259.259,0,1,1-.271.442A29.421,29.421,0,0,0,.2.511.259.259,0,0,1,.32.007C1.582.31,3.813,1.449,7.04,3.43Z" transform="translate(26.82 8.105) rotate(40)" fill="#ff8d88"/>
      <path id="Leaves_base-18" data-name="Leaves base" d="M4.021,5.776A4.73,4.73,0,0,1,.854,4.452,2.571,2.571,0,0,1,0,2.61,2.665,2.665,0,0,1,.941.734,2.436,2.436,0,0,1,2.636,0,4.172,4.172,0,0,1,5.227,1.213a18.541,18.541,0,0,1,3.026,3.6l.262.386-.466.018a24.014,24.014,0,0,0-3.419.5A3.109,3.109,0,0,1,4.021,5.776ZM2.644.536A1.929,1.929,0,0,0,1.3,1.111,2.138,2.138,0,0,0,.519,2.617a2.043,2.043,0,0,0,.7,1.467,4.246,4.246,0,0,0,2.8,1.174,2.6,2.6,0,0,0,.508-.048,29.2,29.2,0,0,1,3.038-.48A16.881,16.881,0,0,0,4.86,1.575,3.619,3.619,0,0,0,2.644.536Z" transform="translate(25.256 2.107) rotate(40)" fill="#ff8d88"/>
      <path id="Leaves_base-19" data-name="Leaves base" d="M5.132.363a.259.259,0,1,1-.1.509C2.679.406,1.122.406.392.84A.259.259,0,0,1,.127.394C1-.126,2.661-.126,5.132.363Z" transform="translate(26.584 14.238) rotate(40)" fill="#ff8d88"/>
      <path id="Leaves_base-20" data-name="Leaves base" d="M2.052,4.481h0A1.7,1.7,0,0,1,.93,4.021,2.8,2.8,0,0,1,.161,2.829,2.214,2.214,0,0,1,.264.934,1.885,1.885,0,0,1,1.673.087,8.737,8.737,0,0,1,2.906,0,9.837,9.837,0,0,1,5.3.306a13.131,13.131,0,0,1,2.487.917l.472.228-.467.237c-2.037,1.033-3.72,1.908-5,2.6A1.528,1.528,0,0,1,2.052,4.481ZM2.905.518h0A8.217,8.217,0,0,0,1.747.6,1.39,1.39,0,0,0,.7,1.212,1.7,1.7,0,0,0,.651,2.66a1.7,1.7,0,0,0,1.41,1.3.993.993,0,0,0,.476-.123C3.722,3.193,5.249,2.4,7.075,1.469A10.43,10.43,0,0,0,2.906.518Z" transform="translate(24.115 11.021) rotate(40)" fill="#ff8d88"/>
      <path id="Leaves_base-21" data-name="Leaves base" d="M5.837.09a.259.259,0,1,1-.052.516C3.062.329,1.291.712.459,1.713a.259.259,0,0,1-.4-.331C1.03.215,2.96-.2,5.837.09Z" transform="translate(27.412 19.036) rotate(40)" fill="#ff8d88"/>
      <path id="Leaves_base-22" data-name="Leaves base" d="M3.805,4.68a6.031,6.031,0,0,1-2.027-.4A3.625,3.625,0,0,1,.239,3.314.932.932,0,0,1,.007,2.6a1.033,1.033,0,0,1,.474-.676A8.762,8.762,0,0,1,3.456.8,38.74,38.74,0,0,1,8.594.07L9.415,0,8.782.528A16.833,16.833,0,0,0,5.31,4.081a1.116,1.116,0,0,1-.583.454A2.6,2.6,0,0,1,3.805,4.68ZM7.823.662C4.241,1.015,1.871,1.583.779,2.35a.524.524,0,0,0-.258.322.424.424,0,0,0,.123.319,3.184,3.184,0,0,0,1.315.8,5.614,5.614,0,0,0,1.863.369c.539,0,.91-.122,1.043-.345A15.078,15.078,0,0,1,7.823.662Z" transform="translate(23.926 16.011) rotate(40)" fill="#ff8d88"/>
      <path id="Leaves_base-23" data-name="Leaves base" d="M3.251,5.671a.259.259,0,1,1-.409.318C.632,3.148-.3,1.241.084.172A.259.259,0,0,1,.572.347C.276,1.173,1.157,2.98,3.251,5.671Z" transform="translate(34.144 18.502) rotate(40)" fill="#ff8d88"/>
      <path id="Leaves_base-24" data-name="Leaves base" d="M2.981,6.557h0L2.7,6.348A7.824,7.824,0,0,1,.273,3.367,2.77,2.77,0,0,1,0,2.064,2.265,2.265,0,0,1,.348.952,2.064,2.064,0,0,1,2.128,0a2.739,2.739,0,0,1,.808.128A1.456,1.456,0,0,1,3.848.9a3.637,3.637,0,0,1,.165,2.068A16.467,16.467,0,0,1,3.1,6.231l-.121.325ZM2.136.52a1.567,1.567,0,0,0-1.354.715A1.969,1.969,0,0,0,.744,3.149,7.258,7.258,0,0,0,2.739,5.716c.81-2.264,1.025-3.805.638-4.579A.966.966,0,0,0,2.783.623,2.193,2.193,0,0,0,2.136.52Z" transform="translate(34.894 15.101) rotate(40)" fill="#ff8d88"/>
      <path id="Leaves_base-25" data-name="Leaves base" d="M19.873,17.161a.259.259,0,1,1-.123.5C9.935,15.259.624,7.457,0,.282A.259.259,0,1,1,.517.237C1.118,7.15,10.251,14.8,19.873,17.161Z" transform="matrix(0.588, -0.809, 0.809, 0.588, 12.046, 38.309)" fill="#ff8d88"/>
      <path id="Leaves_base-26" data-name="Leaves base" d="M.68,7.711a.259.259,0,1,1-.515.057C-.231,4.2.085,1.655,1.137.113a.259.259,0,1,1,.428.292C.6,1.822.3,4.259.68,7.711Z" transform="matrix(0.588, -0.809, 0.809, 0.588, 16.1, 35.301)" fill="#ff8d88"/>
      <path id="Leaves_base-27" data-name="Leaves base" d="M.669,8.208h0L.55,7.716A16.254,16.254,0,0,1,0,3.564,4.342,4.342,0,0,1,.755.979,2.783,2.783,0,0,1,3.075,0,1.892,1.892,0,0,1,4.683.591a1.75,1.75,0,0,1,.1,1.593C4.392,3.463,3.153,5.308,1,7.823L.67,8.208ZM3.075.518a2.306,2.306,0,0,0-1.905.8A3.688,3.688,0,0,0,.517,3.492a14.476,14.476,0,0,0,.421,3.6A17.687,17.687,0,0,0,4.29,2.032,1.273,1.273,0,0,0,4.264.9C4.076.642,3.687.518,3.075.518Z" transform="matrix(0.588, -0.809, 0.809, 0.588, 13.66, 34.047)" fill="#ff8d88"/>
      <path id="Leaves_base-28" data-name="Leaves base" d="M4.074,8.378h0L3.7,8.05A16.57,16.57,0,0,1,.845,4.932,4.094,4.094,0,0,1,.009,2.418,2.616,2.616,0,0,1,1.415.428,2.466,2.466,0,0,1,2.67,0a1.224,1.224,0,0,1,.852.33,2.246,2.246,0,0,1,.573.984c.4,1.249.415,3.4.037,6.573l-.058.491ZM2.657.515h0a1.948,1.948,0,0,0-.971.354A2.138,2.138,0,0,0,.543,2.478,3.455,3.455,0,0,0,1.233,4.6,14.831,14.831,0,0,0,3.675,7.327,16.174,16.174,0,0,0,3.6,1.473C3.391.819,3.091.515,2.657.515Z" transform="matrix(0.588, -0.809, 0.809, 0.588, 7.8, 38.361)" fill="#ff8d88"/>
      <path id="Leaves_base-29" data-name="Leaves base" d="M7.04,3.43a.259.259,0,1,1-.271.442A29.421,29.421,0,0,0,.2.511.259.259,0,0,1,.32.007C1.582.31,3.813,1.449,7.04,3.43Z" transform="matrix(0.588, -0.809, 0.809, 0.588, 16.239, 42.865)" fill="#ff8d88"/>
      <path id="Leaves_base-30" data-name="Leaves base" d="M4.021,5.776A4.73,4.73,0,0,1,.854,4.452,2.571,2.571,0,0,1,0,2.61,2.665,2.665,0,0,1,.941.734,2.436,2.436,0,0,1,2.636,0,4.172,4.172,0,0,1,5.227,1.213a18.541,18.541,0,0,1,3.026,3.6l.262.386-.466.018a24.014,24.014,0,0,0-3.419.5A3.109,3.109,0,0,1,4.021,5.776ZM2.644.536A1.929,1.929,0,0,0,1.3,1.111,2.138,2.138,0,0,0,.519,2.617a2.043,2.043,0,0,0,.7,1.467,4.246,4.246,0,0,0,2.8,1.174,2.6,2.6,0,0,0,.508-.048,29.2,29.2,0,0,1,3.038-.48A16.881,16.881,0,0,0,4.86,1.575,3.619,3.619,0,0,0,2.644.536Z" transform="matrix(0.588, -0.809, 0.809, 0.588, 10.365, 44.844)" fill="#ff8d88"/>
      <path id="Leaves_base-31" data-name="Leaves base" d="M5.132.363a.259.259,0,1,1-.1.509C2.679.406,1.122.406.392.84A.259.259,0,0,1,.127.394C1-.126,2.661-.126,5.132.363Z" transform="matrix(0.588, -0.809, 0.809, 0.588, 22.375, 42.674)" fill="#ff8d88"/>
      <path id="Leaves_base-32" data-name="Leaves base" d="M2.052,4.481h0A1.7,1.7,0,0,1,.93,4.021,2.8,2.8,0,0,1,.161,2.829,2.214,2.214,0,0,1,.264.934,1.885,1.885,0,0,1,1.673.087,8.737,8.737,0,0,1,2.906,0,9.837,9.837,0,0,1,5.3.306a13.131,13.131,0,0,1,2.487.917l.472.228-.467.237c-2.037,1.033-3.72,1.908-5,2.6A1.528,1.528,0,0,1,2.052,4.481ZM2.905.518h0A8.217,8.217,0,0,0,1.747.6,1.39,1.39,0,0,0,.7,1.212,1.7,1.7,0,0,0,.651,2.66a1.7,1.7,0,0,0,1.41,1.3.993.993,0,0,0,.476-.123C3.722,3.193,5.249,2.4,7.075,1.469A10.43,10.43,0,0,0,2.906.518Z" transform="matrix(0.588, -0.809, 0.809, 0.588, 19.337, 45.36)" fill="#ff8d88"/>
      <path id="Leaves_base-33" data-name="Leaves base" d="M5.837.09a.259.259,0,1,1-.052.516C3.062.329,1.291.712.459,1.713a.259.259,0,0,1-.4-.331C1.03.215,2.96-.2,5.837.09Z" transform="matrix(0.588, -0.809, 0.809, 0.588, 27.103, 41.512)" fill="#ff8d88"/>
      <path id="Leaves_base-34" data-name="Leaves base" d="M3.805,4.68a6.031,6.031,0,0,1-2.027-.4A3.625,3.625,0,0,1,.239,3.314.932.932,0,0,1,.007,2.6a1.033,1.033,0,0,1,.474-.676A8.762,8.762,0,0,1,3.456.8,38.74,38.74,0,0,1,8.594.07L9.415,0,8.782.528A16.833,16.833,0,0,0,5.31,4.081a1.116,1.116,0,0,1-.583.454A2.6,2.6,0,0,1,3.805,4.68ZM7.823.662C4.241,1.015,1.871,1.583.779,2.35a.524.524,0,0,0-.258.322.424.424,0,0,0,.123.319,3.184,3.184,0,0,0,1.315.8,5.614,5.614,0,0,0,1.863.369c.539,0,.91-.122,1.043-.345A15.078,15.078,0,0,1,7.823.662Z" transform="matrix(0.588, -0.809, 0.809, 0.588, 24.328, 45.201)" fill="#ff8d88"/>
      <path id="Leaves_base-35" data-name="Leaves base" d="M3.251,5.671a.259.259,0,1,1-.409.318C.632,3.148-.3,1.241.084.172A.259.259,0,0,1,.572.347C.276,1.173,1.157,2.98,3.251,5.671Z" transform="matrix(0.588, -0.809, 0.809, 0.588, 26.1, 34.834)" fill="#ff8d88"/>
      <path id="Leaves_base-36" data-name="Leaves base" d="M2.981,6.557h0L2.7,6.348A7.824,7.824,0,0,1,.273,3.367,2.77,2.77,0,0,1,0,2.064,2.265,2.265,0,0,1,.348.952,2.064,2.064,0,0,1,2.128,0a2.739,2.739,0,0,1,.808.128A1.456,1.456,0,0,1,3.848.9a3.637,3.637,0,0,1,.165,2.068A16.467,16.467,0,0,1,3.1,6.231l-.121.325ZM2.136.52a1.567,1.567,0,0,0-1.354.715A1.969,1.969,0,0,0,.744,3.149,7.258,7.258,0,0,0,2.739,5.716c.81-2.264,1.025-3.805.638-4.579A.966.966,0,0,0,2.783.623,2.193,2.193,0,0,0,2.136.52Z" transform="matrix(0.588, -0.809, 0.809, 0.588, 22.655, 34.323)" fill="#ff8d88"/>
    </g>
    <g id="Leaves-3" data-name="Leaves" transform="translate(214.224 321.787)">
      <g id="Group_28" data-name="Group 28" transform="translate(48.634 10.293)">
        <path id="Leaf_base" data-name="Leaf base" d="M.439,94.868Q-3,5.17,20.536.233T.439,94.868Z" transform="translate(0 0)" fill="#fff"/>
        <path id="Leaf_base-2" data-name="Leaf base" d="M0,71.039S10.739,9.343,18.789,0" transform="translate(0.846 17.472)" fill="none" stroke="#7990dd" stroke-linecap="round" stroke-miterlimit="10" stroke-width="2"/>
      </g>
      <g id="Group_29" data-name="Group 29" transform="translate(22.08 0)">
        <path id="Leaf_base-3" data-name="Leaf base" d="M24.284,116.034C22.343,72.165-18.395,17.465,10.063,1.545S29.094,97.571,24.284,116.034Z" transform="translate(0 0)" fill="#7990dd"/>
        <path id="Leaf_base-4" data-name="Leaf base" d="M11.515,80.864S3.187,13.2,0,0" transform="translate(14.238 22.467)" fill="none" stroke="#fff" stroke-linecap="round" stroke-miterlimit="10" stroke-width="2"/>
      </g>
      <g id="Group_25" data-name="Group 25" transform="translate(7.122 82.706)">
        <path id="Leaf_base-5" data-name="Leaf base" d="M43.9,28.576C21.243.445.315-6.913,0,6.488S23.221,11.983,43.9,28.576Z" transform="translate(0 0)" fill="#7990dd"/>
        <path id="Leaf_base-6" data-name="Leaf base" d="M24.984,16.007S17.021,6.914,0,0" transform="translate(13.232 7.884)" fill="none" stroke="#fff" stroke-linecap="round" stroke-miterlimit="10" stroke-width="2"/>
      </g>
      <g id="Group_27" data-name="Group 27" transform="translate(45.097 54.688)">
        <path id="Leaf_base-7" data-name="Leaf base" d="M0,61.542C5.473,26.408,31.966-16.283,42.989,6.31S15.4,40.017,0,61.542Z" transform="translate(0 0)" fill="#7990dd"/>
        <path id="Leaf_base-8" data-name="Leaf base" d="M0,39.21S12.6,11.409,26.915,0" transform="translate(1.3 19.184)" fill="none" stroke="#fff" stroke-linecap="round" stroke-miterlimit="10" stroke-width="2"/>
      </g>
      <g id="Group_26" data-name="Group 26" transform="translate(44.577 98.676)">
        <path id="Leaf_base-9" data-name="Leaf base" d="M0,18.905C6.569,6.008,30.044-6.7,38.19,4.015S8.12,13.325,0,18.905Z" transform="translate(0 0)" fill="#fff"/>
        <path id="Leaf_base-10" data-name="Leaf base" d="M30.467,0S15.234,0,0,11.9" transform="translate(0.977 5.475)" fill="none" stroke="#7990dd" stroke-linecap="round" stroke-miterlimit="10" stroke-width="2"/>
      </g>
      <g id="Leaf_base-11" data-name="Leaf base" transform="translate(0 48.847)">
        <path id="Leaf_base-12" data-name="Leaf base" d="M47.245,61.617C35.637,11.468,11.627-11.3,1.631,5.443S30.173,27.331,47.245,61.617Z" transform="translate(0 0)" fill="#fff"/>
        <path id="Leaf_base-13" data-name="Leaf base" d="M27.973,35.732S16.842,11.263,0,0" transform="translate(16.294 17.657)" fill="none" stroke="#7990dd" stroke-linecap="round" stroke-miterlimit="10" stroke-width="2"/>
      </g>
    </g>
    <g id="Leaves-4" data-name="Leaves" transform="translate(87.241 352.525)">
      <g id="Leaf" transform="translate(0 23.891)">
        <path id="Leaf_base-14" data-name="Leaf base" d="M15.826,64.449c9.653,2.057,20.549,2.418,22.392-7.862s-7.193-8.046-7.193-12.968,10.3-7.39,9.431-16.681-11.28-10.025-8.2-15.7S31.039.171,29.155.081,26.507-.693,21.39,4.266,12.7,8.7,10.869,13.371s3.605,8.335,1.043,15.35S0,35.995,0,46.574,6.173,62.392,15.826,64.449Z" transform="translate(0 30.103) rotate(-48)" fill="#ff8e88"/>
        <path id="Leaf_base-15" data-name="Leaf base" d="M14.261,57.79q9.39,2.992,23.319-4.151-.008-.239-.027-.465Q23.527,60.422,14.2,57.321c-.155-1.165-.278-2.371-.369-3.607l.118.076.23-.359c-.129-.083-.258-.166-.385-.25a73,73,0,0,1,.014-9.528q.142-2.143.4-4.253a26.3,26.3,0,0,0,22.3-3.9c.341-.384.669-.784.976-1.2Q26.56,42.283,14.261,38.973q.219-1.7.515-3.362,10.77,4.305,23.587-3.652l-.225-.362Q25.46,39.475,14.853,35.183A55.783,55.783,0,0,1,22.128,15.6q.078-.124.157-.251,3.542,1.432,8.664-1.273a3.085,3.085,0,0,1-.1-.428Q25.9,16.3,22.507,14.977q.547-.927,1.085-2.012,3.247.744,7.815-1.843.183-.344.331-.686-4.7,2.828-7.954,2.135A76.4,76.4,0,0,0,28.225.031C28.074.023,27.93.012,27.791,0a75.4,75.4,0,0,1-4.429,12.465q-3.451-1.01-5.226-6.216-.181.136-.359.264,1.844,5.259,5.4,6.339-.525,1.054-1.059,1.954-3.462-1.635-5.255-7.66-.188.124-.372.242,1.845,6.068,5.405,7.785l-.124.2a46.014,46.014,0,0,0-2.713,4.973,29.12,29.12,0,0,1-7.289-9.8q-.163.161-.317.334a29.7,29.7,0,0,0,7.418,9.866,57.668,57.668,0,0,0-3.351,9.479,30.305,30.305,0,0,1-3.853-4.17c-.022.194-.05.389-.085.588A31.124,31.124,0,0,0,15.4,30.694q-.538,2.123-.945,4.321a25.026,25.026,0,0,1-5.333-3.152q-.14.161-.284.318a25.459,25.459,0,0,0,5.539,3.263,74.42,74.42,0,0,0-.992,8.18,73.555,73.555,0,0,0-.035,9.259Q4.731,47.047,2.152,38.145q-.168.188-.331.384Q4.538,47.54,13.379,53.421c.088,1.283.211,2.534.367,3.744Q4.82,53.92.249,40.978q-.131.278-.249.57Q4.7,54.463,13.809,57.639a45.227,45.227,0,0,0,1.439,6.826l.476.1A44.016,44.016,0,0,1,14.261,57.79Z" transform="translate(0.625 29.48) rotate(-48)" fill="#fff"/>
      </g>
      <g id="Leaf-2" data-name="Leaf" transform="translate(38.138 5.409)">
        <path id="Leaf_base-16" data-name="Leaf base" d="M28.285,81.124c-11.063,2.4-23.549,2.825-25.661-9.187s8.244-9.4,8.244-15.152S-.937,48.15.06,37.293,16.018,25.528,12.493,18.9s-6.572-17.19,0-18.675S16.045,5.007,21.909,10.8s9.953,5.183,12.058,10.639-4.132,9.74-1.195,17.937,13.65,8.5,13.65,20.86S39.348,78.721,28.285,81.124Z" transform="translate(0 0)" fill="#374abe"/>
        <path id="Leaf_base-17" data-name="Leaf base" d="M27.863,72.937q-10.8,3.641-26.778-4.568.005-.24.019-.469,16.075,8.319,26.822,4.565c.178-1.384.32-2.816.423-4.284l-.127.082-.23-.358q.2-.127.393-.256a87.085,87.085,0,0,0-.02-11.089q-.168-2.59-.481-5.137A30,30,0,0,1,2.656,47.415c-.35-.385-.691-.784-1.016-1.2Q13.916,54.836,27.831,51q-.258-2.019-.606-4Q14.731,52.128,0,43.044l.224-.363q14.59,9,26.924,3.887a65.942,65.942,0,0,0-8.327-22.806q-.1-.155-.191-.314-3.328,1.379-7.885-.509.146-.172.275-.347,4.271,1.742,7.391.485-.644-1.109-1.276-2.413a9.628,9.628,0,0,1-5.377-.47,3.5,3.5,0,0,0-.079-.474,9.408,9.408,0,0,0,5.268.551Q13.536,13.062,10.461.137c.131-.05.266-.1.406-.137q3.088,12.984,6.5,20.163,3.984-1.171,6.032-7.284.181.138.358.269-2.117,6.161-6.2,7.4.62,1.272,1.25,2.354,4-1.9,6.058-8.98.188.126.372.246-2.113,7.119-6.212,9.1.081.134.162.266A54.1,54.1,0,0,1,22.272,29.3a31.671,31.671,0,0,0,8.3-11.521q.166.162.324.334a32.242,32.242,0,0,1-8.437,11.594A68.262,68.262,0,0,1,26.375,41a35.622,35.622,0,0,0,4.436-4.826q.037.289.088.585a36.5,36.5,0,0,1-4.407,4.709q.6,2.421,1.058,4.926a29.572,29.572,0,0,0,6.128-3.644q.138.163.279.322a29.984,29.984,0,0,1-6.33,3.752,88.434,88.434,0,0,1,1.163,9.705,87.665,87.665,0,0,1,.04,10.819q9.986-6.755,12.883-17.2.169.193.332.393Q39.01,61.093,28.8,67.887c-.1,1.513-.241,2.988-.42,4.414q10.192-3.841,15.537-18.769c.085.188.166.38.244.577q-5.471,14.9-15.843,18.668a53.872,53.872,0,0,1-1.669,8.111l-.475.1A52.6,52.6,0,0,0,27.863,72.937Z" transform="translate(1.257 0.317)" fill="#fff"/>
      </g>
      <g id="Leaf-3" data-name="Leaf" transform="translate(52.5 0)">
        <path id="Leaf_base-18" data-name="Leaf base" d="M18.58,82.683C7.728,81.706-3.35,78.342.95,65.852s9.444-1.78,12.9-8.274S9.353,46.623,10.275,40.465s12.539-1.575,12.451-4.891c-.1-3.6-4.678-7.739-1.832-14.372s11.318-.182,11.639-7.792S32.462-.493,38.939.031,45.723,8.3,47.864,15.79s7.11,3.712,6.153,9.731-8.571,8.358-10.2,17.334,7.533,12.516,1.217,24.711S29.433,83.659,18.58,82.683Z" transform="translate(0 6.598) rotate(-7)" fill="#000140"/>
        <path id="Leaf_base-19" data-name="Leaf base" d="M11.212,82.111a32.421,32.421,0,0,0,3.962-9.858Q6.152,71.258,0,59.129c.166.017.331.029.495.032Q6.513,70.89,15.281,71.835q.049-.194.1-.392C15.953,69.121,18.3,57.931,19.07,54.6q.543-2.34,1.13-4.671Q9.767,48.057,5.6,36.288c.147-.009.3-.017.443-.023q4.1,11.455,14.261,13.25A253.362,253.362,0,0,1,28.48,23.461a24.646,24.646,0,0,0,1.116-4q-3.683-1.313-7.022-7.37v-.016l.366-.2q3.229,5.875,6.731,7.163Q31.239,9.762,25.1.25A3.854,3.854,0,0,1,25.441,0q6.266,9.69,4.641,19.168,3.847,1.114,8.072-3.234.08.225.164.435-4.327,4.348-8.312,3.22a25.1,25.1,0,0,1-1.126,4.02c-.887,2.4-1.714,4.721-2.49,6.989q9.84-2.7,13.7-11.474c.111.106.222.205.334.3q-3.96,8.858-13.946,11.595l-.1-.373c-1.686,4.936-3.124,9.608-4.391,14.2a37.531,37.531,0,0,0,11.648-.519q0,.218.009.432a38.2,38.2,0,0,1-11.768.5v-.016q-.6,2.179-1.146,4.341l.053.008-.065.421L20.622,50q-.592,2.347-1.137,4.7c-.582,2.508-2.06,9.5-3,13.779,10.324-.038,16.185-4.73,19.705-14.848l.141.049q.074.211.144.424c-3.6,10.083-9.627,14.79-20.084,14.8-.262,1.191-.474,2.131-.6,2.643l-.082.328q9.135.7,21.255-10.119-.077.355-.175.723Q24.768,73.028,15.6,72.294a33.419,33.419,0,0,1-3.889,9.821h-.01Q11.459,82.115,11.212,82.111Z" transform="translate(9.996 6.087) rotate(-7)" fill="#fff"/>
      </g>
    </g>
    <g id="Iphone_" data-name="Iphone " transform="translate(172.237 274.128)">
      <g id="Iphone" transform="translate(0 0)">
        <path id="Iphone_base" data-name="Iphone base" d="M9.224,13.184A14.255,14.255,0,0,0,2.167.88L.78.069A.518.518,0,0,0,0,.516V181.108a.518.518,0,0,0,.879.372l4.018-3.9a14.255,14.255,0,0,0,4.327-10.229Z" transform="translate(61.944 0.871)" fill="#2d3053"/>
        <path id="Iphone_base-2" data-name="Iphone base" d="M0,24.6a5.184,5.184,0,0,1,3.918-5.027L58.6,5.808a5.184,5.184,0,0,1,6.449,5.027V183.884a5.184,5.184,0,0,1-6.449,5.027L3.918,175.145A5.184,5.184,0,0,1,0,170.118Z" transform="translate(0 -5.648)" fill="#2d3053"/>
      </g>
      <g id="Display_Store" data-name="Display Store" transform="translate(3.629 5.17)">
        <path id="Mask" d="M0,17.142a5.184,5.184,0,0,1,3.928-5.029L49.284.791A5.184,5.184,0,0,1,55.723,5.82V168.53a5.184,5.184,0,0,1-6.439,5.029L3.928,162.238A5.184,5.184,0,0,1,0,157.208Z" transform="translate(0 -0.634)" fill="#fff"/>
        <g id="Display_store-2" data-name="Display store" transform="translate(0.133 64.028)">
          <g id="Display_store_" data-name="Display store " transform="translate(0 0)">
            <path id="Display_store_base" data-name="Display store base" d="M21.741,21.817H0V0H21.741V21.817ZM1.543,1.544V20.273H20.2V1.544Z" transform="translate(0 20.273)" fill="#7990dd"/>
            <path id="Display_store_base-2" data-name="Display store base" d="M21.741,21.817H0V0H21.741V21.817ZM1.543,1.544V20.273H20.2V1.544Z" transform="translate(0 0)" fill="#7990dd"/>
            <path id="Display_store_base-3" data-name="Display store base" d="M21.741,21.817H0V0H21.741V21.817ZM1.543,1.544V20.273H20.2V1.544Z" transform="translate(20.198 40.546)" fill="#ff8d88"/>
            <path id="Display_store_base-4" data-name="Display store base" d="M15.455,21.817H0V0H15.455V21.817ZM1.1,1.544V20.273h13.26V1.544Z" transform="translate(40.395 40.546)" fill="#ff8d88"/>
          </g>
          <g id="Display_store_2" data-name="Display store " transform="translate(5.577 16.988)">
            <path id="Display_store_base-5" data-name="Display store base" d="M5.173.341c-.4,1.286,5.544.226,5.81-.341q.562,2.225-.224,2.854c-.252.2-10.255.112-10.642-.4s.248-1.166,1-1.326Q1.867.965,5.173.341Z" transform="translate(0 0)" fill="#7990dd"/>
            <path id="Display_store_base-6" data-name="Display store base" d="M5.173.341q-.6,1.929,1.907,1.438c.763-.15,1.861-.522,2.682-.725A1.788,1.788,0,0,0,10.983,0q.562,2.225-.224,2.854c-.252.2-5.718.554-6.439.592-.581.03-3.816-.48-4.2-.995s.248-1.166,1-1.326Q1.867.965,5.173.341Z" transform="translate(0 0)" fill="#ff8e88"/>
          </g>
          <g id="Display_store_3" data-name="Display store " transform="translate(5.051 32.75)">
            <path id="Display_store_base-7" data-name="Display store base" d="M3.5,3.391C3.835,4.7,8.261.626,8.187,0Q9.823,1.6,9.493,2.555c-.106.306-.267,5.106-.593,5.095q-.286-.01-.26-4.3A26.447,26.447,0,0,1,5.055,7.561a12.906,12.906,0,0,1-4.691.33c-.593-.233-.4-1.128.143-1.665Q1.053,5.687,3.5,3.391Z" transform="translate(0)" fill="#7990dd"/>
            <path id="Display_store_base-8" data-name="Display store base" d="M3.5,3.391Q4,5.358,5.848,3.6c.561-.535,1.286-1.439,1.868-2.05A1.823,1.823,0,0,0,8.187,0Q9.823,1.6,9.493,2.555c-.106.306-.267,5.106-.593,5.095q-.286-.01-.26-4.3A26.447,26.447,0,0,1,5.055,7.561a12.906,12.906,0,0,1-4.691.33c-.593-.233-.4-1.128.143-1.665Q1.053,5.687,3.5,3.391Z" transform="translate(0)" fill="#ff8e88"/>
          </g>
          <rect id="Display_store_base-9" data-name="Display store base" width="33.952" height="1.555" transform="translate(21.379 3.204)" fill="#7990dd"/>
          <g id="Display_store_base-10" data-name="Display store base" transform="translate(25.008 1.649)">
            <rect id="Rectangle_23_Copy" data-name="Rectangle 23 Copy" width="0.942" height="9.273" rx="0.471" transform="translate(0.942)" fill="#fff"/>
            <path id="Rectangle_23" data-name="Rectangle 23" d="M1.57,0h0A1.57,1.57,0,0,1,3.14,1.57V28.581a.785.785,0,0,1-.785.785H.785A.785.785,0,0,1,0,28.581V1.57A1.57,1.57,0,0,1,1.57,0Z" transform="translate(0 4.637)" fill="#ff8e88"/>
            <path id="Rectangle_23_Copy_2" data-name="Rectangle 23 Copy 2" d="M.138,1.845A1.659,1.659,0,0,1,1.786,0h0A1.48,1.48,0,0,1,3.213,1.275L4.535,12.988a.829.829,0,0,1-.824.922H2.24a.829.829,0,0,1-.824-.736Z" transform="translate(0.071 4.637)" fill="#7990dd"/>
          </g>
          <g id="Display_store_4" data-name="Display store " transform="translate(33.82 1.649)">
            <rect id="Display_store_base-11" data-name="Display store base" width="0.942" height="9.273" rx="0.471" transform="translate(0.942)" fill="#fff"/>
            <path id="Display_store_base-12" data-name="Display store base" d="M1.57,0h0A1.57,1.57,0,0,1,3.14,1.57V28.581a.785.785,0,0,1-.785.785H.785A.785.785,0,0,1,0,28.581V1.57A1.57,1.57,0,0,1,1.57,0Z" transform="translate(0 4.637)" fill="#ff8e88"/>
            <path id="Display_store_base-13" data-name="Display store base" d="M.138,1.845A1.659,1.659,0,0,1,1.786,0h0A1.48,1.48,0,0,1,3.213,1.275L4.535,12.988a.829.829,0,0,1-.824.922H2.24a.829.829,0,0,1-.824-.736Z" transform="translate(0.071 4.637)" fill="#7990dd"/>
          </g>
          <g id="Display_store_5" data-name="Display store " transform="translate(38.485 1.649)">
            <rect id="Display_store_base-14" data-name="Display store base" width="0.942" height="9.273" rx="0.471" transform="translate(0.942)" fill="#fff"/>
            <path id="Display_store_base-15" data-name="Display store base" d="M1.57,0h0A1.57,1.57,0,0,1,3.14,1.57V28.581a.785.785,0,0,1-.785.785H.785A.785.785,0,0,1,0,28.581V1.57A1.57,1.57,0,0,1,1.57,0Z" transform="translate(0 4.637)" fill="#ff8e88"/>
            <path id="Display_store_base-16" data-name="Display store base" d="M.138,1.845A1.659,1.659,0,0,1,1.786,0h0A1.48,1.48,0,0,1,3.213,1.275L4.535,12.988a.829.829,0,0,1-.824.922H2.24a.829.829,0,0,1-.824-.736Z" transform="translate(0.071 4.637)" fill="#7990dd"/>
          </g>
          <g id="Display_store_6" data-name="Display store " transform="translate(42.891 1.649)">
            <rect id="Display_store_base-17" data-name="Display store base" width="0.942" height="9.273" rx="0.471" transform="translate(0.942)" fill="#fff"/>
            <path id="Display_store_base-18" data-name="Display store base" d="M1.57,0h0A1.57,1.57,0,0,1,3.14,1.57V28.581a.785.785,0,0,1-.785.785H.785A.785.785,0,0,1,0,28.581V1.57A1.57,1.57,0,0,1,1.57,0Z" transform="translate(0 4.637)" fill="#ff8e88"/>
            <path id="Display_store_base-19" data-name="Display store base" d="M.138,1.845A1.659,1.659,0,0,1,1.786,0h0A1.48,1.48,0,0,1,3.213,1.275L4.535,12.988a.829.829,0,0,1-.824.922H2.24a.829.829,0,0,1-.824-.736Z" transform="translate(0.071 4.637)" fill="#7990dd"/>
          </g>
          <g id="Display_store_7" data-name="Display store " transform="translate(47.297 1.649)">
            <rect id="Display_store_base-20" data-name="Display store base" width="0.942" height="9.273" rx="0.471" transform="translate(0.942)" fill="#fff"/>
            <path id="Display_store_base-21" data-name="Display store base" d="M1.57,0h0A1.57,1.57,0,0,1,3.14,1.57V28.581a.785.785,0,0,1-.785.785H.785A.785.785,0,0,1,0,28.581V1.57A1.57,1.57,0,0,1,1.57,0Z" transform="translate(0 4.637)" fill="#ff8e88"/>
            <path id="Display_store_base-22" data-name="Display store base" d="M.138,1.845A1.659,1.659,0,0,1,1.786,0h0A1.48,1.48,0,0,1,3.213,1.275L4.535,12.988a.829.829,0,0,1-.824.922H2.24a.829.829,0,0,1-.824-.736Z" transform="translate(0.071 4.637)" fill="#7990dd"/>
          </g>
        </g>
        <g id="Poster" transform="translate(33.175 29.91)">
          <rect id="Poster_base" data-name="Poster base" width="15.81" height="19.698" fill="#374abe"/>
          <rect id="Poster_base-2" data-name="Poster base" width="12.181" height="15.81" transform="translate(1.814 1.814)" fill="#fff"/>
        </g>
        <g id="Poster-2" data-name="Poster" transform="translate(2.851 26.023)">
          <rect id="Poster_base-3" data-name="Poster base" width="20.993" height="27.473" fill="#ff8d88"/>
          <rect id="Poster_base-4" data-name="Poster base" width="16.175" height="22.051" transform="translate(2.409 2.53)" fill="#fff"/>
        </g>
      </g>
      <path id="Iphone_base-3" data-name="Iphone base" d="M0,9.211,37.322,0,36.74,6.479a5.184,5.184,0,0,1-4.214,4.633L6.866,15.888a5.184,5.184,0,0,1-5.9-3.56Z" transform="translate(11.404 6.428)" fill="#2d3053"/>
    </g>
    <g id="Girl" transform="translate(147.57 328.322)">
      <g id="Body" transform="matrix(1, -0.017, 0.017, 1, 26.56, 10.511)">
        <path id="Body-2" data-name="Body" d="M4.109,2.378c6.289-4.194,5.031-2.1,8.813.628,2.053,1.482,4.959,8.162,1.184,22.163-1.184,4.39,5.539,4.815,6.111,7.969-5.577,2.949-15.309,7.027-19.117,1.3,1.529-2.771,1.709-5.286,1.834-10.39.138-5.658-3.709-10-2.791-13.171C.9,8.258,3.167,3.006,4.109,2.378Z" transform="translate(0.714 9.194)" fill="#ffb0b6"/>
        <path id="Shadow" d="M0,4.789C.88,1.481,4.736,0,4.736,0L7.257,9.916,1.494,12.181S2.272,7.636,0,4.789Z" transform="matrix(0.999, -0.035, 0.035, 0.999, 2.577, 0.253)" fill="#e9989e"/>
        <path id="Shadow-2" data-name="Shadow" d="M3.982,2.378c6.289-4.194,5.031-2.1,8.813.628,2.053,1.482,4.959,8.162,1.184,22.163-1.184,4.39,5.539,4.815,6.111,7.969C18.06,34.21,7.324,34.85,4.681,35.7,2.454,36.408,2,33.93,7.275,26.209,10.808,21.041-.461,12.521.015,10.877.772,8.258,3.04,3.006,3.982,2.378Z" transform="translate(0.841 9.194)" fill="#e9989e"/>
        <path id="Shirt" d="M4.4,6.082c.029-.019-.251-.133-.248-.334,0-.1.2-.2.2-.339,0-.059-.192-.124-.19-.187A12.64,12.64,0,0,1,4.4,2.615,32.028,32.028,0,0,1,9.019,0c1.494,1.624,2.4,4.474,4.644,6.082,2.067,1.482,5.8,8.433,2,22.433C15.083,30.657,11.4,30,8.774,29.866c-2.749-.138-6.035.224-5.971-2.388.139-5.657-3.579-9.428-2.656-12.6C.91,12.259,3.451,6.709,4.4,6.082Z" transform="translate(0 5.825)" fill="#fff"/>
        <path id="Shadow-3" data-name="Shadow" d="M.26,1.925c.064-.042-.37-.156-.233-.353.062-.089.266-.242.245-.337C.246,1.12-.017.918.079.942,1.3,1.254,1.491.912,3.651.537,3.759.654.094,1.551.431,1.659,2.08,2.19,6.25.524,8.392,0c1.713.65,4.549,3.873,3.926,4.127s-7.746-.4-7.489-2.613C2.3,2.156-.347,2.327.26,1.925Z" transform="translate(4.139 9.981)" fill="#e9edf0"/>
        <path id="Shadow-4" data-name="Shadow" d="M7.514.2c2.072-1.455,8.171,4.867,4.37,18.866-.582,2.143-4.27,1.483-6.892,1.352,4.076.071,1.009-1.881,1.195-3.306.009-.071,1.5-3.794.071-4.07s-.1-1.951-.8-2.025c-2.845-.3-5.837.049-5.423-.095,1.566-.544,3.688-.368,4.654-3.77.655-2.31-.419-3.978.759-5.226A13.3,13.3,0,0,1,7.514.2Z" transform="translate(3.782 15.269)" fill="#e9edf0"/>
      </g>
      <g id="Foot" transform="translate(1.416 61.436) rotate(-17)">
        <path id="Leg" d="M5.235,16.219c-1.773,1.87-.682-1.958-1.813-6.123C1.938,6.952,1.693,5.12.237,2.594c-1.127-1.955,2-4.638,4.552-.125,1.27,2.243,2.182,5.144,3.188,7.342.382.657.672,2.426,0,3.016C7.977,12.826,5.745,15.682,5.235,16.219Z" transform="translate(11.049 62.497) rotate(40)" fill="#ffb0b6"/>
        <path id="Shoes" d="M3.767,4.45s.8,2.244,2.82,0C7.2,3.767,7.97,2.635,8.6,1.86A2.446,2.446,0,0,0,9,0s2.111,1.7,1.815,2.849c-.095.369.2,5.992-.185,6.013-.342.018-.749-4.991-.749-4.991A45,45,0,0,1,6.048,9.157a15.706,15.706,0,0,1-5.55.873c-.73-.21-.595-1.275,0-1.96S3.767,4.45,3.767,4.45Z" transform="translate(2.776 70.288) rotate(16)" fill="#0a1039"/>
        <path id="Pants" d="M19.694,1.239c.724-.993,2.561,1.152,5.428.763,3.242-.44,6.493-2.4,7.057-1.929,1.617,1.356,4.1,2.236,4.716,3.933.517.761,1.5,5.554-.191,11.252-.364,1.228-.319,7.048-7.376,7.048C28.3,23.787,23.8,30.677,19.752,37.447c-5.087,8.506-6.5,24.1-8.209,27.516C9.9,68.25-.77,64.629.044,60.524.6,57.746,5.882,35.8,5.346,31.972,4.722,27.512,8.538,21.118,17.264,6.619A43.454,43.454,0,0,1,19.694,1.239Z" transform="translate(8.719 0)" fill="#020687"/>
      </g>
      <g id="Papper_bag" data-name="Papper bag" transform="matrix(1, -0.017, 0.017, 1, 0.367, 60.973)">
        <g id="Papper_bag_base" data-name="Papper bag base" transform="translate(10.723 0)" fill="none" stroke="#0a1039" stroke-miterlimit="10" stroke-width="2">
          <rect width="9.071" height="18.92" rx="4.536" stroke="none"/>
          <rect x="1" y="1" width="7.071" height="16.92" rx="3.536" fill="none"/>
        </g>
        <path id="Papper_bag_base-2" data-name="Papper bag base" d="M4.775.42A.518.518,0,0,1,5.283,0H23.247a.518.518,0,0,1,.518.524l-.246,24.392a.518.518,0,0,1-.488.512L2.86,26.619.319,25.562a.518.518,0,0,1-.31-.577Z" transform="translate(0 9.487)" fill="#e7ae34"/>
        <path id="Papper_bag_base-3" data-name="Papper bag base" d="M2.494.468A.518.518,0,0,1,3.01,0H23.062a.518.518,0,0,1,.516.468l2.491,25.659a.518.518,0,0,1-.516.568H.518A.518.518,0,0,1,0,26.127Z" transform="translate(2.574 9.487)" fill="#ffc23f"/>
      </g>
      <g id="Foot-2" data-name="Foot" transform="matrix(1, -0.017, 0.017, 1, 27.971, 48.455)">
        <path id="Leg-2" data-name="Leg" d="M10.18,6.192c.025.038,4.314.619,6.069,3.629,1.618,2.776,4.247,10.546,8,23.345l-3.783,4.2a165.706,165.706,0,0,0-9.076-15.6C5.3,13.234,3.716,11.54.332,9.82-1.78,8.747,6.734-9.165,10.18,6.192Z" transform="translate(15.17 40.476) rotate(-41)" fill="#ffb0b6"/>
        <g id="Pants-2" data-name="Pants" transform="translate(0 0)">
          <path id="Pants-3" data-name="Pants" d="M48.738,60.539c-5.5-2.017-21.888-10.49-27.567-12.889-1.39-.309-3.273-2.529-4.027-3.728-1.667-2.653-5.015-8.858-8.71-23.355C1.4,12.605-.092,10.942.069,10.72-.444,7.265,2.048,2.906,2.246,1.9c.09-.457,1.1-.252,2.479-.047A13.409,13.409,0,0,0,8.434,2c3.257-.44,6.525-2.4,7.091-1.93,1.625,1.358,4.115,2.238,4.739,3.936,4.876,3.494,5.721,16.076,8.6,30.2a159.435,159.435,0,0,1,25.3,12.748c1.661,1.056-2.881,13.617-5.215,13.617A.606.606,0,0,1,48.738,60.539Z" transform="translate(0 0)" fill="#374abe"/>
          <path id="Texture" d="M40.016,48.766S13.371,39.743,12.485,35.552,9.395,9.214,8.076,8.281,0,0,0,0" transform="translate(10.709 2.335)" fill="none" stroke="#fff" stroke-linecap="round" stroke-linejoin="round" stroke-miterlimit="10" stroke-width="1" stroke-dasharray="4 4"/>
          <path id="Texture-2" data-name="Texture" d="M0,0S5.508,4.163,8.727,2.186" transform="translate(7.523 7.598)" fill="none" stroke="#fff" stroke-linecap="round" stroke-linejoin="round" stroke-miterlimit="10" stroke-width="1"/>
        </g>
      </g>
      <g id="Papper_bag-2" data-name="Papper bag" transform="translate(0 64.561) rotate(-16)">
        <g id="Papper_bag_base-4" data-name="Papper bag base" transform="translate(10.723 0)" fill="none" stroke="#0a1039" stroke-miterlimit="10" stroke-width="2">
          <rect width="9.071" height="18.92" rx="4.536" stroke="none"/>
          <rect x="1" y="1" width="7.071" height="16.92" rx="3.536" fill="none"/>
        </g>
        <path id="Papper_bag_base-5" data-name="Papper bag base" d="M4.775.42A.518.518,0,0,1,5.283,0H23.247a.518.518,0,0,1,.518.524l-.246,24.392a.518.518,0,0,1-.488.512L2.86,26.619.319,25.562a.518.518,0,0,1-.31-.577Z" transform="translate(0 9.487)" fill="#e7ae34"/>
        <path id="Papper_bag_base-6" data-name="Papper bag base" d="M2.494.468A.518.518,0,0,1,3.01,0H23.062a.518.518,0,0,1,.516.468l2.491,25.659a.518.518,0,0,1-.516.568H.518A.518.518,0,0,1,0,26.127Z" transform="translate(2.574 9.487)" fill="#ffc23f"/>
      </g>
      <g id="Hand" transform="matrix(1, -0.017, 0.017, 1, 7.424, 23.054)">
        <path id="Hand-2" data-name="Hand" d="M12.316,41.655c.575,2.336.657,3.488.377,4.256s-.643.228-.747.029c-.447.871-.825.5-1.093.222-.459.682-1.017.37-1.212-.193-.709,2.21-1.128-.051-1.087-.3.061-.382.3-1.145.118-1.372s-1,1.639-1.408,1.5.648-1.927.924-2.279c.607-.773,2.339-2.112,2.71-2.978,1.729-4.032,2.741-9.505,2.741-16.689A12.092,12.092,0,0,1,15.02,18.73C8.154,12.537,4.377,8.918,2.929,7.872.756,6.3-1.227,3.736.931,1.456S6.266-.2,8.2,1.764C9.49,3.073,13.75,9.943,20.124,18.73,20.124,18.73,18.528,32,12.316,41.655Z" transform="translate(33.184 0) rotate(45)" fill="#ffb0b6"/>
        <path id="Shirt-2" data-name="Shirt" d="M7.825,12.942c-2.7-2.471-4.029-4.444-4.9-5.07C.756,6.3-1.227,3.736.931,1.456S6.266-.2,8.2,1.764a54.208,54.208,0,0,1,5.674,7.154C15.7,11.6,9.635,14.6,7.825,12.942Z" transform="translate(33.184 0) rotate(45)" fill="#fff"/>
        <path id="Shadow-5" data-name="Shadow" d="M1.111,0C4.248-.084,6.053,2.6,6.033,5.36a54.208,54.208,0,0,1-1.046,9.071c-.376,1.984-3.009,1.891-4.966.945-.308-.149,2.9-.145,3.265-.974.181-.41-2.035-1.163-1.489-1.7.48-.471,2.408-.623,2.746-1.324A9.319,9.319,0,0,0,1.111,0Z" transform="translate(31.702 1.686)" fill="#e9edf0"/>
      </g>
      <g id="Head" transform="translate(21.508 0)">
        <g id="Face_" data-name="Face " transform="matrix(1, -0.017, 0.017, 1, 0, 1.791)">
          <path id="Face_base" data-name="Face base" d="M2.081,15.934c-.554-.224-.879-1.792-.763-3.595a2,2,0,0,0-.134-.751c-.152-.565-1.379-.733-1.159-1.463C.308,9.192,2.34,7.593,2.752,6.573,4.6,1.989,7.089-1.33,11.677.523s4.07,5.967,2.217,10.552S2.894,16.263,2.081,15.934Z" transform="translate(0 0)" fill="#ffb0b6"/>
          <g id="Lips" transform="translate(1.126 12.68)">
            <path id="Lips_base" data-name="Lips base" d="M.913.173c.627.184.259.433,1.389.181A1.868,1.868,0,0,1,.144.68C.118.547-.19.315.184.005c.036-.03-.03.074.151.14A4.859,4.859,0,0,1,.913.173Z" transform="translate(0 0)" fill="#ff5932"/>
            <path id="Lips_base-2" data-name="Lips base" d="M2.2,0C1.47.475,1.64,1.12.256.982a.429.429,0,0,1-.1-.728C.419,0,1.514.248,2.2,0Z" transform="translate(0.037 0.395)" fill="#ff5932"/>
            <path id="Lips_base-3" data-name="Lips base" d="M2.038.1a3.313,3.313,0,0,1-1.176.5C.7.617-.086.459.008.376.031.355.037.335.024.314c.194.052.281-.04.4-.02.083.014.295.149.4.173A2.052,2.052,0,0,0,2.042.086S2.339-.117,2.038.1Z" transform="translate(0.12 0.345)" fill="#f01b00"/>
          </g>
          <path id="Face_base-2" data-name="Face base" d="M1.1,0A4.091,4.091,0,0,1,3.538,1.368,7.629,7.629,0,0,0,.359,1.02C-.453,1.19.251.03,1.1,0Z" transform="translate(3.604 5.417)" fill="#510000"/>
          <path id="Face_base-3" data-name="Face base" d="M.639.646c-.3.209-.522.486-.623.53S.28.332.8.071A.264.264,0,0,1,.881.035l.02,0L.932.021A2.151,2.151,0,0,1,2.516.7,5.13,5.13,0,0,0,1.409.4a1.07,1.07,0,0,1,.065.166c.106.355.012.693-.209.754S.778,1.145.672.79A1.069,1.069,0,0,1,.639.646Z" transform="translate(3.589 6.962) rotate(25)" fill="#510000"/>
          <path id="Face_base-4" data-name="Face base" d="M0,2.031c-.015-.039.345-.142.529-.25.129-.075.184-.283.077-.309C.329,1.4-.11.725.479.4A3.041,3.041,0,0,1,1.518,0c.445-.042.509.841.439.828S1.826.185,1.549.212A3.011,3.011,0,0,0,.613.62c-.394.222-.028.615.127.759A.267.267,0,0,1,.723,1.8C.619,1.9.027,2.1,0,2.031Z" transform="translate(10.002 8.439)" fill="#ff6868"/>
        </g>
        <g id="glasses" transform="matrix(1, -0.017, 0.017, 1, 0.98, 6.069)">
          <path id="glasses_base" data-name="glasses base" d="M.907,6.48c-.286,0-.521-.322-.679-.93A9.642,9.642,0,0,1,0,3.24,9.642,9.642,0,0,1,.228.93C.387.322.621,0,.907,0s.521.322.679.93a9.62,9.62,0,0,1,.228,2.31,9.62,9.62,0,0,1-.228,2.31C1.428,6.158,1.193,6.48.907,6.48Zm0-.518a.1.1,0,0,1,.045.008l0,0a.341.341,0,0,1-.043-.06l.022-.039a2.5,2.5,0,0,0,.183-.575A10.134,10.134,0,0,0,1.3,3.24a10.134,10.134,0,0,0-.184-2.052A2.509,2.509,0,0,0,.929.612C.922.6.915.585.907.572.9.579.895.593.885.612A2.528,2.528,0,0,0,.7,1.187,10.165,10.165,0,0,0,.518,3.24,10.165,10.165,0,0,0,.7,5.292a2.52,2.52,0,0,0,.183.575c.007.013.014.027.022.039a.36.36,0,0,1-.045.062A.11.11,0,0,1,.907,5.961Z" transform="translate(2.427 0) rotate(22)" fill="#0a1039"/>
          <path id="glasses_base-2" data-name="glasses base" d="M0,.3,6.27,0l.014.259L.012.758Z" transform="translate(3.236 2.369) rotate(22)" fill="#0a1039"/>
        </g>
        <path id="Hair" d="M16.5,1.323c1.326,1.113,1.853,6.311,2.713,10.84.514,2.709,4.446.982,5.178,5.441.907,5.523-7.044,8.507-9.948,5.639-.862-.851-1.782-2.011-1.5-4.88-.715,3.253.054,4.182,2.31,6-2.564-1.022-3.286-2.679-3.159-4.352q.277-3.669-1.191-5.069A2.224,2.224,0,0,1,9.68,13.4a3.087,3.087,0,0,0,1.672-1.6c.373-.972.293-1.856-.2-2.228q-.5-.372-1.86.815c-.245.476-.163,1.267-.42,1.147-.293-.137-.506-2.587-.808-2.7Q5.608,7.895,4.436,4.414A20.626,20.626,0,0,0,1.49,9.21,7.527,7.527,0,0,1,.466,2.187,4.241,4.241,0,0,1,5.561.251C8.828,1.5,13.968.022,15.629.66A2,2,0,0,1,16.5,1.323Z" transform="translate(0.956 0)" fill="#510000"/>
      </g>
    </g>
    <g id="Leaves-5" data-name="Leaves" transform="translate(336.991 418.471) rotate(177)">
      <path id="Leaves_base-37" data-name="Leaves base" d="M.066,31.843a.259.259,0,0,0,.386.346q11.055-12.329,20.04-14.525C30.306,15.259,39.618,7.457,40.241.282a.259.259,0,1,0-.516-.045c-.6,6.913-9.734,14.566-19.356,16.924Q11.21,19.405.066,31.843Z" transform="translate(46.516 40.335) rotate(180)" fill="#ff8d88"/>
      <path id="Leaves_base-38" data-name="Leaves base" d="M.93,7.711a.259.259,0,1,0,.515.057C1.842,4.2,1.525,1.655.473.113A.259.259,0,1,0,.045.405C1.011,1.822,1.314,4.259.93,7.711Z" transform="translate(12.701 38.823) rotate(180)" fill="#ff8d88"/>
      <path id="Leaves_base-39" data-name="Leaves base" d="M4.251,8.208h0l.119-.492a16.254,16.254,0,0,0,.546-4.152A4.342,4.342,0,0,0,4.165.979,2.783,2.783,0,0,0,1.845,0,1.892,1.892,0,0,0,.237.591a1.75,1.75,0,0,0-.1,1.593C.528,3.463,1.767,5.308,3.922,7.823l.329.385ZM1.845.518a2.306,2.306,0,0,1,1.905.8A3.688,3.688,0,0,1,4.4,3.492a14.476,14.476,0,0,1-.421,3.6A17.687,17.687,0,0,1,.631,2.032,1.273,1.273,0,0,1,.657.9C.845.642,1.233.518,1.845.518Z" transform="translate(15.591 41.535) rotate(180)" fill="#ff8d88"/>
      <path id="Leaves_base-40" data-name="Leaves base" d="M.333,8.378h0L.7,8.05A16.57,16.57,0,0,0,3.562,4.932,4.094,4.094,0,0,0,4.4,2.418,2.616,2.616,0,0,0,2.992.428,2.466,2.466,0,0,0,1.737,0,1.224,1.224,0,0,0,.885.33a2.246,2.246,0,0,0-.573.984c-.4,1.249-.415,3.4-.037,6.573l.058.491ZM1.75.515h0A1.948,1.948,0,0,1,2.72.869,2.138,2.138,0,0,1,3.864,2.478,3.455,3.455,0,0,1,3.174,4.6,14.831,14.831,0,0,1,.732,7.327,16.174,16.174,0,0,1,.8,1.473c.211-.654.511-.958.945-.958Z" transform="translate(8.143 43.74) rotate(180)" fill="#ff8d88"/>
      <path id="Leaves_base-41" data-name="Leaves base" d="M.124,3.43a.259.259,0,1,0,.271.442A29.421,29.421,0,0,1,6.964.511a.259.259,0,0,0-.121-.5C5.581.31,3.35,1.449.124,3.43Z" transform="translate(12.216 34.265) rotate(180)" fill="#ff8d88"/>
      <path id="Leaves_base-42" data-name="Leaves base" d="M4.495,5.776A4.73,4.73,0,0,0,7.662,4.452,2.571,2.571,0,0,0,8.515,2.61,2.665,2.665,0,0,0,7.574.734,2.436,2.436,0,0,0,5.879,0,4.172,4.172,0,0,0,3.288,1.213a18.541,18.541,0,0,0-3.026,3.6L0,5.2l.466.018a24.014,24.014,0,0,1,3.419.5A3.109,3.109,0,0,0,4.495,5.776ZM5.871.536a1.929,1.929,0,0,1,1.347.575A2.138,2.138,0,0,1,8,2.617a2.043,2.043,0,0,1-.7,1.467A4.246,4.246,0,0,1,4.5,5.258a2.6,2.6,0,0,1-.508-.048,29.2,29.2,0,0,0-3.038-.48A16.881,16.881,0,0,1,3.655,1.575,3.619,3.619,0,0,1,5.871.536Z" transform="translate(8.515 37.854) rotate(180)" fill="#ff8d88"/>
      <path id="Leaves_base-43" data-name="Leaves base" d="M.209.363a.259.259,0,1,0,.1.509C2.662.406,4.219.406,4.95.84A.259.259,0,0,0,5.214.394C4.338-.126,2.681-.126.209.363Z" transform="translate(14.156 29.414) rotate(180)" fill="#ff8d88"/>
      <path id="Leaves_base-44" data-name="Leaves base" d="M6.2,4.481h0a1.7,1.7,0,0,0,1.122-.46,2.8,2.8,0,0,0,.769-1.192,2.214,2.214,0,0,0-.1-1.895A1.885,1.885,0,0,0,6.581.087,8.737,8.737,0,0,0,5.348,0,9.837,9.837,0,0,0,2.959.306a13.131,13.131,0,0,0-2.487.917L0,1.451l.467.237c2.037,1.033,3.72,1.908,5,2.6A1.528,1.528,0,0,0,6.2,4.481ZM5.349.518h0A8.217,8.217,0,0,1,6.508.6a1.39,1.39,0,0,1,1.042.612A1.7,1.7,0,0,1,7.6,2.66a1.7,1.7,0,0,1-1.41,1.3.993.993,0,0,1-.476-.123C4.532,3.193,3.006,2.4,1.179,1.469A10.43,10.43,0,0,1,5.349.518Z" transform="translate(13.11 30.292) rotate(180)" fill="#ff8d88"/>
      <path id="Leaves_base-45" data-name="Leaves base" d="M.233.09A.259.259,0,1,0,.285.606C3.008.329,4.779.712,5.611,1.713a.259.259,0,1,0,.4-.331C5.04.215,3.11-.2.233.09Z" transform="translate(18.603 26.271) rotate(180)" fill="#ff8d88"/>
      <path id="Leaves_base-46" data-name="Leaves base" d="M5.61,4.68a6.031,6.031,0,0,0,2.027-.4,3.625,3.625,0,0,0,1.539-.961A.932.932,0,0,0,9.408,2.6a1.033,1.033,0,0,0-.474-.676A8.762,8.762,0,0,0,5.959.8,38.74,38.74,0,0,0,.821.07L0,0,.633.528A16.833,16.833,0,0,1,4.106,4.081a1.116,1.116,0,0,0,.583.454A2.6,2.6,0,0,0,5.61,4.68ZM1.592.662c3.582.353,5.952.921,7.044,1.688a.524.524,0,0,1,.258.322.424.424,0,0,1-.123.319,3.184,3.184,0,0,1-1.315.8,5.614,5.614,0,0,1-1.863.369c-.539,0-.91-.122-1.043-.345A15.078,15.078,0,0,0,1.592.662Z" transform="translate(17.334 26.347) rotate(180)" fill="#ff8d88"/>
      <path id="Leaves_base-47" data-name="Leaves base" d="M.055,5.671a.259.259,0,1,0,.409.318C2.674,3.148,3.605,1.241,3.222.172a.259.259,0,0,0-.488.175C3.031,1.173,2.149,2.98.055,5.671Z" transform="translate(20.653 31.008) rotate(180)" fill="#ff8d88"/>
      <path id="Leaves_base-48" data-name="Leaves base" d="M1.1,6.557h0l.277-.209a7.824,7.824,0,0,0,2.43-2.981,2.77,2.77,0,0,0,.271-1.3A2.265,2.265,0,0,0,3.732.952,2.064,2.064,0,0,0,1.953,0a2.739,2.739,0,0,0-.808.128A1.456,1.456,0,0,0,.232.9,3.637,3.637,0,0,0,.066,2.965,16.467,16.467,0,0,0,.978,6.231l.121.325ZM1.944.52A1.567,1.567,0,0,1,3.3,1.236a1.969,1.969,0,0,1,.038,1.913A7.258,7.258,0,0,1,1.342,5.716C.532,3.452.317,1.911.7,1.137A.966.966,0,0,1,1.3.623,2.193,2.193,0,0,1,1.944.52Z" transform="translate(19.815 34.095) rotate(180)" fill="#ff8d88"/>
      <path id="Leaves_base-49" data-name="Leaves base" d="M.2,17.161a.259.259,0,1,0,.123.5C10.135,15.259,19.447,7.457,20.07.282a.259.259,0,0,0-.516-.045C18.953,7.15,9.82,14.8.2,17.161Z" transform="translate(47.033 31.555) rotate(140)" fill="#ff8d88"/>
      <path id="Leaves_base-50" data-name="Leaves base" d="M.93,7.711a.259.259,0,1,0,.515.057C1.842,4.2,1.525,1.655.473.113A.259.259,0,1,0,.045.405C1.011,1.822,1.314,4.259.93,7.711Z" transform="translate(35.609 39.167) rotate(140)" fill="#ff8d88"/>
      <path id="Leaves_base-51" data-name="Leaves base" d="M4.251,8.208h0l.119-.492a16.254,16.254,0,0,0,.546-4.152A4.342,4.342,0,0,0,4.165.979,2.783,2.783,0,0,0,1.845,0,1.892,1.892,0,0,0,.237.591a1.75,1.75,0,0,0-.1,1.593C.528,3.463,1.767,5.308,3.922,7.823l.329.385ZM1.845.518a2.306,2.306,0,0,1,1.905.8A3.688,3.688,0,0,1,4.4,3.492a14.476,14.476,0,0,1-.421,3.6A17.687,17.687,0,0,1,.631,2.032,1.273,1.273,0,0,1,.657.9C.845.642,1.233.518,1.845.518Z" transform="translate(39.566 39.387) rotate(140)" fill="#ff8d88"/>
      <path id="Leaves_base-52" data-name="Leaves base" d="M.333,8.378h0L.7,8.05A16.57,16.57,0,0,0,3.562,4.932,4.094,4.094,0,0,0,4.4,2.418,2.616,2.616,0,0,0,2.992.428,2.466,2.466,0,0,0,1.737,0,1.224,1.224,0,0,0,.885.33a2.246,2.246,0,0,0-.573.984c-.4,1.249-.415,3.4-.037,6.573l.058.491ZM1.75.515h0A1.948,1.948,0,0,1,2.72.869,2.138,2.138,0,0,1,3.864,2.478,3.455,3.455,0,0,1,3.174,4.6,14.831,14.831,0,0,1,.732,7.327,16.174,16.174,0,0,1,.8,1.473c.211-.654.511-.958.945-.958Z" transform="translate(35.278 45.864) rotate(140)" fill="#ff8d88"/>
      <path id="Leaves_base-53" data-name="Leaves base" d="M.124,3.43a.259.259,0,1,0,.271.442A29.421,29.421,0,0,1,6.964.511a.259.259,0,0,0-.121-.5C5.581.31,3.35,1.449.124,3.43Z" transform="translate(32.308 35.987) rotate(140)" fill="#ff8d88"/>
      <path id="Leaves_base-54" data-name="Leaves base" d="M4.495,5.776A4.73,4.73,0,0,0,7.662,4.452,2.571,2.571,0,0,0,8.515,2.61,2.665,2.665,0,0,0,7.574.734,2.436,2.436,0,0,0,5.879,0,4.172,4.172,0,0,0,3.288,1.213a18.541,18.541,0,0,0-3.026,3.6L0,5.2l.466.018a24.014,24.014,0,0,1,3.419.5A3.109,3.109,0,0,0,4.495,5.776ZM5.871.536a1.929,1.929,0,0,1,1.347.575A2.138,2.138,0,0,1,8,2.617a2.043,2.043,0,0,1-.7,1.467A4.246,4.246,0,0,1,4.5,5.258a2.6,2.6,0,0,1-.508-.048,29.2,29.2,0,0,0-3.038-.48A16.881,16.881,0,0,1,3.655,1.575,3.619,3.619,0,0,1,5.871.536Z" transform="translate(31.779 41.116) rotate(140)" fill="#ff8d88"/>
      <path id="Leaves_base-55" data-name="Leaves base" d="M.209.363a.259.259,0,1,0,.1.509C2.662.406,4.219.406,4.95.84A.259.259,0,0,0,5.214.394C4.338-.126,2.681-.126.209.363Z" transform="translate(30.675 31.024) rotate(140)" fill="#ff8d88"/>
      <path id="Leaves_base-56" data-name="Leaves base" d="M6.2,4.481h0a1.7,1.7,0,0,0,1.122-.46,2.8,2.8,0,0,0,.769-1.192,2.214,2.214,0,0,0-.1-1.895A1.885,1.885,0,0,0,6.581.087,8.737,8.737,0,0,0,5.348,0,9.837,9.837,0,0,0,2.959.306a13.131,13.131,0,0,0-2.487.917L0,1.451l.467.237c2.037,1.033,3.72,1.908,5,2.6A1.528,1.528,0,0,0,6.2,4.481ZM5.349.518h0A8.217,8.217,0,0,1,6.508.6a1.39,1.39,0,0,1,1.042.612A1.7,1.7,0,0,1,7.6,2.66a1.7,1.7,0,0,1-1.41,1.3.993.993,0,0,1-.476-.123C4.532,3.193,3.006,2.4,1.179,1.469A10.43,10.43,0,0,1,5.349.518Z" transform="translate(30.438 32.369) rotate(140)" fill="#ff8d88"/>
      <path id="Leaves_base-57" data-name="Leaves base" d="M.233.09A.259.259,0,1,0,.285.606C3.008.329,4.779.712,5.611,1.713a.259.259,0,1,0,.4-.331C5.04.215,3.11-.2.233.09Z" transform="translate(32.062 25.759) rotate(140)" fill="#ff8d88"/>
      <path id="Leaves_base-58" data-name="Leaves base" d="M5.61,4.68a6.031,6.031,0,0,0,2.027-.4,3.625,3.625,0,0,0,1.539-.961A.932.932,0,0,0,9.408,2.6a1.033,1.033,0,0,0-.474-.676A8.762,8.762,0,0,0,5.959.8,38.74,38.74,0,0,0,.821.07L0,0,.633.528A16.833,16.833,0,0,1,4.106,4.081a1.116,1.116,0,0,0,.583.454A2.6,2.6,0,0,0,5.61,4.68ZM1.592.662c3.582.353,5.952.921,7.044,1.688a.524.524,0,0,1,.258.322.424.424,0,0,1-.123.319,3.184,3.184,0,0,1-1.315.8,5.614,5.614,0,0,1-1.863.369c-.539,0-.91-.122-1.043-.345A15.078,15.078,0,0,0,1.592.662Z" transform="translate(31.139 26.633) rotate(140)" fill="#ff8d88"/>
      <path id="Leaves_base-59" data-name="Leaves base" d="M.055,5.671a.259.259,0,1,0,.409.318C2.674,3.148,3.605,1.241,3.222.172a.259.259,0,0,0-.488.175C3.031,1.173,2.149,2.98.055,5.671Z" transform="translate(36.677 28.069) rotate(140)" fill="#ff8d88"/>
      <path id="Leaves_base-60" data-name="Leaves base" d="M1.1,6.557h0l.277-.209a7.824,7.824,0,0,0,2.43-2.981,2.77,2.77,0,0,0,.271-1.3A2.265,2.265,0,0,0,3.732.952,2.064,2.064,0,0,0,1.953,0a2.739,2.739,0,0,0-.808.128A1.456,1.456,0,0,0,.232.9,3.637,3.637,0,0,0,.066,2.965,16.467,16.467,0,0,0,.978,6.231l.121.325ZM1.944.52A1.567,1.567,0,0,1,3.3,1.236a1.969,1.969,0,0,1,.038,1.913A7.258,7.258,0,0,1,1.342,5.716C.532,3.452.317,1.911.7,1.137A.966.966,0,0,1,1.3.623,2.193,2.193,0,0,1,1.944.52Z" transform="translate(38.02 30.973) rotate(140)" fill="#ff8d88"/>
      <path id="Leaves_base-61" data-name="Leaves base" d="M.2,17.161a.259.259,0,1,0,.123.5C10.135,15.259,19.447,7.457,20.07.282a.259.259,0,0,0-.516-.045C18.953,7.15,9.82,14.8.2,17.161Z" transform="matrix(-0.588, -0.809, 0.809, -0.588, 23.843, 26.625)" fill="#ff8d88"/>
      <path id="Leaves_base-62" data-name="Leaves base" d="M.93,7.711a.259.259,0,1,0,.515.057C1.842,4.2,1.525,1.655.473.113A.259.259,0,1,0,.045.405C1.011,1.822,1.314,4.259.93,7.711Z" transform="matrix(-0.588, -0.809, 0.809, -0.588, 17.047, 14.698)" fill="#ff8d88"/>
      <path id="Leaves_base-63" data-name="Leaves base" d="M4.251,8.208h0l.119-.492a16.254,16.254,0,0,0,.546-4.152A4.342,4.342,0,0,0,4.165.979,2.783,2.783,0,0,0,1.845,0,1.892,1.892,0,0,0,.237.591a1.75,1.75,0,0,0-.1,1.593C.528,3.463,1.767,5.308,3.922,7.823l.329.385ZM1.845.518a2.306,2.306,0,0,1,1.905.8A3.688,3.688,0,0,1,4.4,3.492a14.476,14.476,0,0,1-.421,3.6A17.687,17.687,0,0,1,.631,2.032,1.273,1.273,0,0,1,.657.9C.845.642,1.233.518,1.845.518Z" transform="matrix(-0.588, -0.809, 0.809, -0.588, 16.552, 18.63)" fill="#ff8d88"/>
      <path id="Leaves_base-64" data-name="Leaves base" d="M.333,8.378h0L.7,8.05A16.57,16.57,0,0,0,3.562,4.932,4.094,4.094,0,0,0,4.4,2.418,2.616,2.616,0,0,0,2.992.428,2.466,2.466,0,0,0,1.737,0,1.224,1.224,0,0,0,.885.33a2.246,2.246,0,0,0-.573.984c-.4,1.249-.415,3.4-.037,6.573l.058.491ZM1.75.515h0A1.948,1.948,0,0,1,2.72.869,2.138,2.138,0,0,1,3.864,2.478,3.455,3.455,0,0,1,3.174,4.6,14.831,14.831,0,0,1,.732,7.327,16.174,16.174,0,0,1,.8,1.473c.211-.654.511-.958.945-.958Z" transform="matrix(-0.588, -0.809, 0.809, -0.588, 10.39, 13.9)" fill="#ff8d88"/>
      <path id="Leaves_base-65" data-name="Leaves base" d="M.124,3.43a.259.259,0,1,0,.271.442A29.421,29.421,0,0,1,6.964.511a.259.259,0,0,0-.121-.5C5.581.31,3.35,1.449.124,3.43Z" transform="matrix(-0.588, -0.809, 0.809, -0.588, 20.45, 11.626)" fill="#ff8d88"/>
      <path id="Leaves_base-66" data-name="Leaves base" d="M4.495,5.776A4.73,4.73,0,0,0,7.662,4.452,2.571,2.571,0,0,0,8.515,2.61,2.665,2.665,0,0,0,7.574.734,2.436,2.436,0,0,0,5.879,0,4.172,4.172,0,0,0,3.288,1.213a18.541,18.541,0,0,0-3.026,3.6L0,5.2l.466.018a24.014,24.014,0,0,1,3.419.5A3.109,3.109,0,0,0,4.495,5.776ZM5.871.536a1.929,1.929,0,0,1,1.347.575A2.138,2.138,0,0,1,8,2.617a2.043,2.043,0,0,1-.7,1.467A4.246,4.246,0,0,1,4.5,5.258a2.6,2.6,0,0,1-.508-.048,29.2,29.2,0,0,0-3.038-.48A16.881,16.881,0,0,1,3.655,1.575,3.619,3.619,0,0,1,5.871.536Z" transform="matrix(-0.588, -0.809, 0.809, -0.588, 15.371, 10.741)" fill="#ff8d88"/>
      <path id="Leaves_base-67" data-name="Leaves base" d="M.209.363a.259.259,0,1,0,.1.509C2.662.406,4.219.406,4.95.84A.259.259,0,0,0,5.214.394C4.338-.126,2.681-.126.209.363Z" transform="matrix(-0.588, -0.809, 0.809, -0.588, 25.514, 10.344)" fill="#ff8d88"/>
      <path id="Leaves_base-68" data-name="Leaves base" d="M6.2,4.481h0a1.7,1.7,0,0,0,1.122-.46,2.8,2.8,0,0,0,.769-1.192,2.214,2.214,0,0,0-.1-1.895A1.885,1.885,0,0,0,6.581.087,8.737,8.737,0,0,0,5.348,0,9.837,9.837,0,0,0,2.959.306a13.131,13.131,0,0,0-2.487.917L0,1.451l.467.237c2.037,1.033,3.72,1.908,5,2.6A1.528,1.528,0,0,0,6.2,4.481ZM5.349.518h0A8.217,8.217,0,0,1,6.508.6a1.39,1.39,0,0,1,1.042.612A1.7,1.7,0,0,1,7.6,2.66a1.7,1.7,0,0,1-1.41,1.3.993.993,0,0,1-.476-.123C4.532,3.193,3.006,2.4,1.179,1.469A10.43,10.43,0,0,1,5.349.518Z" transform="matrix(-0.588, -0.809, 0.809, -0.588, 24.189, 10.014)" fill="#ff8d88"/>
      <path id="Leaves_base-69" data-name="Leaves base" d="M.233.09A.259.259,0,1,0,.285.606C3.008.329,4.779.712,5.611,1.713a.259.259,0,1,0,.4-.331C5.04.215,3.11-.2.233.09Z" transform="matrix(-0.588, -0.809, 0.809, -0.588, 30.67, 12.095)" fill="#ff8d88"/>
      <path id="Leaves_base-70" data-name="Leaves base" d="M5.61,4.68a6.031,6.031,0,0,0,2.027-.4,3.625,3.625,0,0,0,1.539-.961A.932.932,0,0,0,9.408,2.6a1.033,1.033,0,0,0-.474-.676A8.762,8.762,0,0,0,5.959.8,38.74,38.74,0,0,0,.821.07L0,0,.633.528A16.833,16.833,0,0,1,4.106,4.081a1.116,1.116,0,0,0,.583.454A2.6,2.6,0,0,0,5.61,4.68ZM1.592.662c3.582.353,5.952.921,7.044,1.688a.524.524,0,0,1,.258.322.424.424,0,0,1-.123.319,3.184,3.184,0,0,1-1.315.8,5.614,5.614,0,0,1-1.863.369c-.539,0-.91-.122-1.043-.345A15.078,15.078,0,0,0,1.592.662Z" transform="matrix(-0.588, -0.809, 0.809, -0.588, 29.863, 11.112)" fill="#ff8d88"/>
      <path id="Leaves_base-71" data-name="Leaves base" d="M.055,5.671a.259.259,0,1,0,.409.318C2.674,3.148,3.605,1.241,3.222.172a.259.259,0,0,0-.488.175C3.031,1.173,2.149,2.98.055,5.671Z" transform="matrix(-0.588, -0.809, 0.809, -0.588, 28.043, 16.537)" fill="#ff8d88"/>
      <path id="Leaves_base-72" data-name="Leaves base" d="M1.1,6.557h0l.277-.209a7.824,7.824,0,0,0,2.43-2.981,2.77,2.77,0,0,0,.271-1.3A2.265,2.265,0,0,0,3.732.952,2.064,2.064,0,0,0,1.953,0a2.739,2.739,0,0,0-.808.128A1.456,1.456,0,0,0,.232.9,3.637,3.637,0,0,0,.066,2.965,16.467,16.467,0,0,0,.978,6.231l.121.325ZM1.944.52A1.567,1.567,0,0,1,3.3,1.236a1.969,1.969,0,0,1,.038,1.913A7.258,7.258,0,0,1,1.342,5.716C.532,3.452.317,1.911.7,1.137A.966.966,0,0,1,1.3.623,2.193,2.193,0,0,1,1.944.52Z" transform="matrix(-0.588, -0.809, 0.809, -0.588, 25.053, 17.674)" fill="#ff8d88"/>
    </g>
    <g id="Leaves-6" data-name="Leaves" transform="translate(226.146 415.99)">
      <path id="Leaves-7" data-name="Leaves" d="M0,23.809s63.8,1.107,74,0,2.553-4.934,2.553-8.31S67.313,13.625,64.3,13.145s-.583-5.56-6.28-6.1-6.043,2.431-9.283,1.965S53.7,0,42.348,0,34.067,5.63,29,5.715s-.615-2.842-8.826-1.722-2.113,5.576-4.35,6.573-6.65-2.533-9.376,0,2.726,6.191,1.8,8.917S0,23.809,0,23.809Z" transform="translate(0 0)" fill="#fff"/>
    </g>
  </g>
</svg>
